<svg
  className="mr-2 h-5 w-5 text-blue-700"
  version="1.0"
  xmlns="http://www.w3.org/2000/svg"
  width="128.000000pt"
  height="128.000000pt"
  viewBox="0 0 128.000000 128.000000"
  preserveAspectRatio="xMidYMid meet"
>
  <g
    transform="translate(0.000000,128.000000) scale(0.100000,-0.100000)"
    fill="#ffff"
    stroke="none"
  >
    <path
      d="M486 1248 c-14 -20 -16 -94 -16 -608 0 -514 2 -588 16 -608 18 -26
46 -28 68 -6 14 14 16 83 16 614 0 531 -2 600 -16 614 -22 22 -50 20 -68 -6z"
    />
    <path
      d="M252 1058 c-9 -9 -12 -108 -12 -419 0 -438 0 -435 52 -427 45 6 48
28 48 428 0 281 -3 381 -13 400 -14 28 -55 38 -75 18z"
    />
    <path
      d="M726 964 c-14 -13 -16 -57 -16 -324 0 -267 2 -311 16 -324 22 -22 50
-20 68 6 14 19 16 67 16 318 0 251 -2 299 -16 318 -18 26 -46 28 -68 6z"
    />
    <path
      d="M22 914 c-22 -15 -22 -18 -22 -274 l0 -260 25 -16 c23 -15 27 -15 50
0 l25 16 0 260 c0 256 0 259 -22 274 -12 9 -25 16 -28 16 -3 0 -16 -7 -28 -16z"
    />
    <path
      d="M964 916 c-18 -14 -19 -29 -19 -276 0 -247 1 -262 19 -276 25 -18 41
-18 60 2 24 23 24 525 0 548 -19 20 -35 20 -60 2z"
    />
    <path
      d="M1197 752 c-26 -28 -24 -202 1 -225 24 -22 45 -21 65 1 26 28 24 202
-1 225 -24 22 -45 21 -65 -1z"
    />
  </g>
</svg>